# xmcd
#
# Track frame offsets:
#	150
#	12095
#	39450
#	75975
#	97125
#	137287
#	160500
#	197850
#	225000
#	257887
#
# Disc length: 3827 seconds
#
# Revision: 1
# Processed by: cddbd v1.4b42PL1 Copyright (c) Steve Scherf et al.
# Submitted via: audiograbber 1.80
#
DISCID=680ef10a
DTITLE=David Pickvance - Realm of the River King
DYEAR=1900
DGENRE=
TTITLE0=In Morning Light
TTITLE1=Dance of the Earth
TTITLE2=The Traveller's Tale
TTITLE3=Through Reeds and Rushes
TTITLE4=Flight of the River King
TTITLE5=To Elysian Fields
TTITLE6=The Rhythms of Night
TTITLE7=On The Breath of Zephyrs
TTITLE8=Evocation of the Earth (reprise)
TTITLE9=A Leaf upon the River
EXTD=
EXTT0=
EXTT1=
EXTT2=
EXTT3=
EXTT4=
EXTT5=
EXTT6=
EXTT7=
EXTT8=
EXTT9=
PLAYORDER=
